<svg xmlns="http://www.w3.org/2000/svg" viewBox="0 0 16 16"><path d="M3.60948,0.781049c0.781049,0.781049 0.781049,2.04738 0,2.82843c-0.781049,0.781049 -2.04738,0.781049 -2.82843,0c-0.781049,-0.781049 -0.781049,-2.04738 0,-2.82843c0.781049,-0.781049 2.04738,-0.781049 2.82843,0" transform="translate(9.805 11.805)"/><path d="M3.60948,0.781049c0.781049,0.781049 0.781049,2.04738 0,2.82843c-0.781049,0.781049 -2.04738,0.781049 -2.82843,0c-0.781049,-0.781049 -0.781049,-2.04738 -8.88178e-16,-2.82843c0.781049,-0.781049 2.04738,-0.781049 2.82843,0" transform="translate(3.805 11.805)"/><path d="M15.7983,2.39795c-0.188965,-0.250488 -0.484375,-0.397949 -0.79834,-0.397949h-3v2h1.67432l-1.42871,5h-7.39844l-1.36084,-8.16455c-0.0800781,-0.481934 -0.497559,-0.835449 -0.986328,-0.835449h-2.5v2h1.65283l1.36084,8.16455c0.080078,0.481934 0.497558,0.835449 0.986328,0.835449h9c0.446289,0 0.838867,-0.295898 0.961426,-0.725098l2,-7c0.086426,-0.301758 0.0258791,-0.626465 -0.163086,-0.876953Z"/><path d="M6.5,1.45703l-1.45703,-1.45703l-2.5,2.5l-1.04297,-1.04297l-1.5,1.5l2.5,2.5Z" transform="translate(5 .043)"/></svg>