<svg xmlns="http://www.w3.org/2000/svg" viewBox="0 0 48 48"><g data-name="16-Dress"><path fill="none" stroke="#000" stroke-linejoin="round" stroke-width="2" d="M24,24a11,11,0,0,0,7-3c0-3-1-3-1-5,0-3,2-3,2-7a4,4,0,0,0-8,0,4,4,0,0,0-8,0c0,4,2,4,2,7,0,2-1,2-1,5A11,11,0,0,0,24,24Z"/><path fill="none" stroke="#000" stroke-linejoin="round" stroke-width="2" d="M17 18a11 11 0 0 0 7 3 11 11 0 0 0 7-3M31 21c5 7.62 5 20 5 20 0 1.1-5.37 2-12 2s-12-.9-12-2c0 0 0-12.38 5-20"/><path fill="none" stroke="#000" stroke-linejoin="round" stroke-width="2" d="M20 42a4 4 0 0 1-8 0V41M28 43a4 4 0 0 1-8 0M19.79 43S17.37 36 21 27M28.21 43S30.63 36 27 27"/><path fill="none" stroke="#000" stroke-linejoin="round" stroke-width="2" d="M28,42a4,4,0,0,0,8,0V41"/><polyline fill="none" stroke="#000" stroke-linejoin="round" stroke-width="2" points="18 6 16 1 20 1 20 5"/><polyline fill="none" stroke="#000" stroke-linejoin="round" stroke-width="2" points="30 6 32 1 28 1 28 5"/></g></svg>